@startuml

class Pokemon {
    name: str
    level: int
    healthPoints: int
    powerPoints: int
    attack: int
    defence: int
    moves: list 
    }

class Character {

}

class Pokedex {
    PokemonID: int
    PokemonWeight: int
    PokemonHeight: int
    PokemonLocation: str
    PokemonDescription: str

}

class Player_character{
    name: str
    gender: male | female | divers 
    items: list 

}

class Non_player_character {
    priceMoney: int 

}

class Bike {
    velocity: const

}

class Location {
    hasWildPokemon: bool
    hasTrainerBattles: bool 

}

class Cave {

}

class Settlement {
    buildings: int 

}

class Map {

}

class Item {
    price: int
    effect: str 
    ammount: int 

}

class Building {
    buildingType: str 

}

class Route {

}

class Potion {
    heal: int 
}

class Pokeball {
    catchrate: int 
}

class Pokemarket {

}

class Pokecenter {
}

class Pokegym {
    badges: int

}

class Pokeleague {
}

class Pokemon_Species {
}

class Element{

}

class Connection {

}

class Location_with_building {

}

class Location_with_wild_pokemon {

}

class Location_with_trainer_battle {

}

class Possible_pokemon_species {
    possibility: int 
}

class Item_Spot {
    Xkoordinate: int
    Ykoordinate: int 

}



class Spot {
    Xkoordinate: int
    Ykoordinate: int
}


class Timestep {
    Time: int 

}

Character <|-- Player_character

Character <|-- Non_player_character

Character "0..1" o--> "0..6" Pokemon: owns Pokemon

Character "0..1" o--> "0..n" Item: owns Item

Spot "1..n" --> "1" Character: can be found on

Item <|-- Pokeball

Item <|-- Potion

Item <|-- Map

Item <|-- Pokedex

Item <|-- Bike

Character "1" --> "0..8" Pokegym: has won in

Location_with_building <|-- Route

Location_with_trainer_battle <|-- Route

Location_with_building  <|-- Settlement

Location <|-- Location_with_building

Location_with_trainer_battle <|-- Cave

Location_with_wild_pokemon <|-- Cave

Location_with_wild_pokemon <|-- Route

Location_with_trainer_battle <|-- Settlement

Settlement "1" *--> "1..n" Building: contains

Building <|-- Pokemarket

Building <|-- Pokecenter

Building <|-- Pokeleague

Building <|-- Pokegym

Pokemon_Species --> Location: can occur  

Pokemon_Species "1" *--> "1..n" Pokemon: is Species

Pokedex "0..n" --> "0..n" Pokemon_Species: has seen

Pokemon_Species "1..n" *--> "1..2" Element: has Element 

Connection "1..n" --> "0..2" Location: transition

Route "0..1" *--> "0..1" Building: has Building

Location "1" *--> "0..n" Possible_pokemon_species: contains possible Pokemon Species

Location <|-- Location_with_trainer_battle: contains possible Trainer Battles

Location <|-- Location_with_wild_pokemon: contains possible wild Pokemon

Possible_pokemon_species "0..n" --> "1" Pokemon_Species: can occur 

Pokedex "0..n" --> "1..n" Possible_pokemon_species: displays occurence

Pokegym <|-- Pokeleague: is type of Pogegym

 Item_Spot "0..n" --> "1" Item: contains possbile Items in Location 

Location "1" *--> "1..n" Spot: has a spot 

Spot <|-- Item_Spot 

Timestep "1"--> "*" Spot: elapse 

Timestep "1" --> "*" Character: experiences

@enduml
